<svg preserveAspectRatio="none" width="100%" height="100%" overflow="visible" style="display: block;" viewBox="0 0 161.372 48" fill="none" xmlns="http://www.w3.org/2000/svg">
<g id="Frame 1618874996">
<g id="Vector">
<path d="M36.9302 17.4158C37.1563 17.4787 39.61 20.0154 40.0437 20.4334C38.1518 22.2263 36.2124 24.2294 34.3644 26.0788L24.8203 35.6352C24.594 35.5546 22.0782 32.9699 21.7312 32.6232L30.4306 23.9352C32.5821 21.7846 34.8309 19.6032 36.9302 17.4158Z" fill="#FFBB00"/>
<path d="M46.6863 17.4198C46.8893 17.5032 49.4158 20.1013 49.7386 20.4262L34.5288 35.6315C34.2749 35.5286 31.9178 33.0505 31.4397 32.64C36.505 27.6284 41.5799 22.3594 46.6863 17.4198Z" fill="#FFBB00"/>
<path d="M27.265 17.4154C27.4775 17.5177 29.9536 20.0734 30.3189 20.4372C28.7781 21.837 27.0054 23.7136 25.5018 25.2155L15.0775 35.6369C14.8104 35.5115 12.4398 33.0441 12 32.6164C12.5006 32.2072 13.3063 31.3627 13.7804 30.8886L16.8438 27.8228L27.265 17.4154Z" fill="#FFBB00"/>
<path d="M32.6205 12C32.9917 12.1758 35.1445 14.5414 35.734 15.0176L32.4356 18.2921C31.8673 17.9154 29.9284 15.8173 29.3814 15.2717C30.3002 14.3654 31.837 12.927 32.6205 12Z" fill="#FFBB00"/>
<path d="M44.8905 28.8435C45.2571 29.0805 47.4144 31.3611 47.9576 31.8599C46.8796 32.8593 45.7108 34.0805 44.6553 35.1294C43.7171 34.1935 42.5689 32.9715 41.6017 32.1125C42.6379 31.1611 43.8898 29.8484 44.8905 28.8435Z" fill="#FFBB00"/>
<path d="M65.6148 36C64.3802 36 63.2666 35.7902 62.2741 35.3706C61.2896 34.951 60.4746 34.3538 59.829 33.5792C59.1915 32.7964 58.776 31.8725 58.5823 30.8073L60.8095 30.4563C61.0919 31.5537 61.6769 32.4131 62.5645 33.0345C63.4603 33.6478 64.5133 33.9544 65.7237 33.9544C66.5065 33.9544 67.2125 33.8334 67.8419 33.5913C68.4794 33.3411 68.9838 32.9861 69.355 32.5261C69.7262 32.0662 69.9118 31.5215 69.9118 30.8921C69.9118 30.5047 69.8432 30.1739 69.706 29.8995C69.5769 29.6171 69.3953 29.379 69.1613 29.1854C68.9354 28.9836 68.6771 28.8142 68.3866 28.677C68.0961 28.5398 67.7935 28.4268 67.4788 28.3381L63.0366 27.0187C62.5524 26.8735 62.0844 26.6919 61.6325 26.4741C61.1806 26.2481 60.7772 25.9697 60.4221 25.6389C60.0671 25.3 59.7846 24.8965 59.5748 24.4285C59.365 23.9524 59.2601 23.3915 59.2601 22.746C59.2601 21.7131 59.5264 20.8335 60.059 20.1073C60.5996 19.373 61.3299 18.8121 62.2498 18.4248C63.1698 18.0375 64.2067 17.8478 65.3606 17.8559C66.5307 17.864 67.5757 18.0738 68.4956 18.4853C69.4236 18.8888 70.1901 19.4698 70.7954 20.2283C71.4086 20.9868 71.8202 21.8947 72.03 22.9517L69.7423 23.3512C69.6213 22.6411 69.3509 22.0318 68.9313 21.5235C68.5198 21.007 68.0033 20.6116 67.382 20.3373C66.7606 20.0548 66.0788 19.9096 65.3364 19.9015C64.6263 19.8934 63.9848 20.0064 63.4118 20.2404C62.8389 20.4744 62.383 20.8013 62.0441 21.2209C61.7052 21.6324 61.5357 22.1085 61.5357 22.6491C61.5357 23.1817 61.689 23.6134 61.9957 23.9443C62.3023 24.2671 62.6775 24.5253 63.1213 24.719C63.5732 24.9045 64.013 25.0579 64.4407 25.1789L67.7572 26.1351C68.1365 26.24 68.5722 26.3853 69.0645 26.5709C69.5648 26.7565 70.0489 27.0187 70.517 27.3577C70.985 27.6885 71.3723 28.1323 71.679 28.6891C71.9856 29.2378 72.1389 29.9318 72.1389 30.771C72.1389 31.6102 71.9695 32.3567 71.6305 33.0103C71.2997 33.6639 70.8357 34.2126 70.2386 34.6564C69.6414 35.0922 68.9475 35.423 68.1567 35.649C67.3659 35.883 66.5186 36 65.6148 36Z" fill="var(--fill-0, #2E404C)"/>
<path d="M80.609 35.9758C79.7697 35.9758 79.0475 35.8426 78.4423 35.5764C77.8452 35.3101 77.3489 34.955 76.9535 34.5112C76.5581 34.0674 76.2474 33.5751 76.0215 33.0345C75.7956 32.4938 75.6342 31.9411 75.5373 31.3762C75.4486 30.8114 75.4042 30.2828 75.4042 29.7906V22.5644H77.5829V29.1128C77.5829 29.726 77.6394 30.3191 77.7524 30.8921C77.8654 31.465 78.055 31.9814 78.3213 32.4414C78.5956 32.9013 78.9588 33.2645 79.4107 33.5308C79.8706 33.797 80.4435 33.9302 81.1294 33.9302C81.6701 33.9302 82.1623 33.8374 82.6061 33.6518C83.05 33.4662 83.4292 33.1918 83.7439 32.8287C84.0586 32.4575 84.3007 31.9895 84.4702 31.4246C84.6396 30.8598 84.7244 30.2021 84.7244 29.4517L86.1406 29.8874C86.1406 31.1462 85.9106 32.2316 85.4506 33.1434C84.9987 34.0553 84.3572 34.7573 83.5261 35.2495C82.703 35.7337 81.7306 35.9758 80.609 35.9758ZM84.9665 35.6369V32.1388H84.7244V22.5644H86.891V35.6369H84.9665Z" fill="var(--fill-0, #2E404C)"/>
<path d="M106.875 35.6369L106.887 27.2729C106.887 26.2965 106.625 25.534 106.1 24.9852C105.584 24.4285 104.91 24.1501 104.079 24.1501C103.595 24.1501 103.135 24.263 102.699 24.489C102.263 24.7068 101.908 25.0538 101.634 25.5299C101.359 25.998 101.222 26.5991 101.222 27.3334L100.084 26.8735C100.068 25.9455 100.258 25.1345 100.653 24.4406C101.057 23.7385 101.605 23.1938 102.299 22.8065C102.993 22.4192 103.776 22.2255 104.648 22.2255C106.011 22.2255 107.085 22.6411 107.867 23.4722C108.65 24.2953 109.041 25.4049 109.041 26.8009L109.029 35.6369H106.875ZM91.2362 35.6369V22.5644H93.1608V26.0625H93.4028V35.6369H91.2362ZM99.0676 35.6369L99.0797 27.3577C99.0797 26.357 98.8215 25.5743 98.305 25.0095C97.7886 24.4365 97.1027 24.1501 96.2473 24.1501C95.4 24.1501 94.7141 24.4406 94.1896 25.0216C93.6651 25.6026 93.4028 26.3732 93.4028 27.3334L92.2651 26.6556C92.2651 25.8083 92.4668 25.0498 92.8703 24.38C93.2737 23.7103 93.8224 23.1858 94.5164 22.8065C95.2104 22.4192 95.9972 22.2255 96.8767 22.2255C97.7563 22.2255 98.5229 22.4111 99.1765 22.7823C99.8301 23.1535 100.334 23.6861 100.69 24.38C101.045 25.0659 101.222 25.885 101.222 26.8372L101.21 35.6369H99.0676Z" fill="var(--fill-0, #2E404C)"/>
<path d="M128.789 35.6369L128.801 27.2729C128.801 26.2965 128.539 25.534 128.014 24.9852C127.498 24.4285 126.824 24.1501 125.993 24.1501C125.509 24.1501 125.049 24.263 124.613 24.489C124.177 24.7068 123.822 25.0538 123.548 25.5299C123.273 25.998 123.136 26.5991 123.136 27.3334L121.998 26.8735C121.982 25.9455 122.172 25.1345 122.567 24.4406C122.971 23.7385 123.52 23.1938 124.214 22.8065C124.907 22.4192 125.69 22.2255 126.562 22.2255C127.925 22.2255 128.999 22.6411 129.781 23.4722C130.564 24.2953 130.956 25.4049 130.956 26.8009L130.943 35.6369H128.789ZM113.15 35.6369V22.5644H115.075V26.0625H115.317V35.6369H113.15ZM120.982 35.6369L120.994 27.3577C120.994 26.357 120.736 25.5743 120.219 25.0095C119.703 24.4365 119.017 24.1501 118.161 24.1501C117.314 24.1501 116.628 24.4406 116.104 25.0216C115.579 25.6026 115.317 26.3732 115.317 27.3334L114.179 26.6556C114.179 25.8083 114.381 25.0498 114.784 24.38C115.188 23.7103 115.737 23.1858 116.431 22.8065C117.125 22.4192 117.911 22.2255 118.791 22.2255C119.67 22.2255 120.437 22.4111 121.091 22.7823C121.744 23.1535 122.249 23.6861 122.604 24.38C122.959 25.0659 123.136 25.885 123.136 26.8372L123.124 35.6369H120.982Z" fill="var(--fill-0, #2E404C)"/>
<path d="M135.319 20.2525V18.0254H137.473V20.2525H135.319ZM135.319 35.6369V22.5644H137.473V35.6369H135.319Z" fill="var(--fill-0, #2E404C)"/>
<path d="M149.372 35.6369C148.597 35.7902 147.831 35.8507 147.072 35.8184C146.322 35.7942 145.652 35.6449 145.063 35.3706C144.474 35.0882 144.026 34.6524 143.72 34.0633C143.461 33.5469 143.32 33.0264 143.296 32.5019C143.28 31.9693 143.272 31.3682 143.272 30.6984V18.9332H145.426V30.6016C145.426 31.1341 145.43 31.5901 145.438 31.9693C145.454 32.3486 145.539 32.6754 145.692 32.9498C145.983 33.4662 146.443 33.7688 147.072 33.8576C147.71 33.9463 148.476 33.9221 149.372 33.7849V35.6369ZM140.621 24.3437V22.5644H149.372V24.3437H140.621Z" fill="var(--fill-0, #2E404C)"/>
</g>
</g>
</svg>
