<svg preserveAspectRatio="xMidYMid meet" width="42" height="42" viewBox="0 0 42 42" fill="none" xmlns="http://www.w3.org/2000/svg">
<g id="Frame 1618875000">
<g id="Vector">
<path d="M27.0607 14.5973C27.2868 14.6603 29.7405 17.197 30.1742 17.6149C28.2824 19.4078 26.3429 21.411 24.4949 23.2604L14.9508 32.8168C14.7245 32.7361 12.2087 30.1514 11.8618 29.8048L20.5611 21.1168C22.7126 18.9661 24.9614 16.7848 27.0607 14.5973Z" fill="#FFBB00"/>
<path d="M36.8169 14.6014C37.0198 14.6848 39.5463 17.2828 39.8691 17.6078L24.6593 32.813C24.4054 32.7102 22.0484 30.2321 21.5703 29.8215C26.6355 24.81 31.7104 19.541 36.8169 14.6014Z" fill="#FFBB00"/>
<path d="M17.3955 14.597C17.608 14.6993 20.0841 17.255 20.4494 17.6188C18.9086 19.0185 17.1359 20.8952 15.6323 22.3971L5.20806 32.8184C4.94091 32.6931 2.57035 30.2257 2.13052 29.7979C2.63111 29.3887 3.4368 28.5442 3.91092 28.0701L6.97435 25.0043L17.3955 14.597Z" fill="#FFBB00"/>
<path d="M22.751 9.18156C23.1222 9.35732 25.275 11.723 25.8645 12.1991L22.5661 15.4737C21.9978 15.0969 20.059 12.9989 19.5119 12.4533C20.4307 11.547 21.9675 10.1085 22.751 9.18156Z" fill="#FFBB00"/>
<path d="M35.021 26.0251C35.3877 26.2621 37.5449 28.5427 38.0881 29.0415C37.0101 30.0409 35.8413 31.262 34.7858 32.3109C33.8477 31.3751 32.6994 30.153 31.7323 29.294C32.7684 28.3427 34.0203 27.03 35.021 26.0251Z" fill="#FFBB00"/>
</g>
</g>
</svg>
